<svg width="21" height="22" viewBox="0 0 21 22" fill="none" xmlns="http://www.w3.org/2000/svg">
<path d="M0.769999 12.8287L4.15625 16.25C4.23759 16.332 4.33437 16.3971 4.441 16.4415C4.54762 16.4859 4.66199 16.5088 4.7775 16.5088C4.89301 16.5088 5.00738 16.4859 5.114 16.4415C5.22063 16.3971 5.31741 16.332 5.39875 16.25C5.56172 16.086 5.65319 15.8643 5.65319 15.6331C5.65319 15.4019 5.56172 15.1802 5.39875 15.0162L2.28375 11.875L20.125 11.875C20.3571 11.875 20.5796 11.7828 20.7437 11.6187C20.9078 11.4546 21 11.232 21 11V11C21 10.7679 20.9078 10.5453 20.7437 10.3812C20.5796 10.2172 20.3571 10.125 20.125 10.125L2.23125 10.125L5.39875 6.96621C5.48076 6.88487 5.54586 6.7881 5.59028 6.68147C5.6347 6.57484 5.65757 6.46047 5.65757 6.34496C5.65757 6.22945 5.6347 6.11509 5.59028 6.00846C5.54586 5.90183 5.48076 5.80506 5.39875 5.72371C5.31741 5.6417 5.22063 5.57661 5.11401 5.53218C5.00738 5.48776 4.89301 5.46489 4.7775 5.46489C4.66199 5.46489 4.54762 5.48776 4.441 5.53218C4.33437 5.57661 4.23759 5.6417 4.15625 5.72371L0.769999 9.11871C0.278424 9.6109 0.00231034 10.2781 0.00231028 10.9737C0.00231022 11.6693 0.278424 12.3365 0.769999 12.8287Z" fill="black" fill-opacity="0.6"/>
</svg>
