<svg width="35" height="35" viewBox="0 0 35 35" fill="none" xmlns="http://www.w3.org/2000/svg">
<path d="M1.28333 20.5479L6.92708 26.25C7.06265 26.3867 7.22395 26.4952 7.40166 26.5692C7.57937 26.6433 7.76998 26.6814 7.9625 26.6814C8.15501 26.6814 8.34562 26.6433 8.52334 26.5692C8.70105 26.4952 8.86234 26.3867 8.99791 26.25C9.26953 25.9768 9.42199 25.6072 9.42199 25.2219C9.42199 24.8366 9.26953 24.467 8.99791 24.1938L3.80625 18.9584L33.5417 18.9584C33.9284 18.9584 34.2994 18.8047 34.5729 18.5312C34.8464 18.2577 35 17.8868 35 17.5V17.5C35 17.1133 34.8464 16.7423 34.5729 16.4688C34.2994 16.1953 33.9284 16.0417 33.5417 16.0417L3.71875 16.0417L8.99791 10.7771C9.1346 10.6415 9.24309 10.4802 9.31713 10.3025C9.39117 10.1248 9.42929 9.93421 9.42929 9.74169C9.42929 9.54917 9.39117 9.35856 9.31713 9.18085C9.2431 9.00314 9.1346 8.84184 8.99791 8.70627C8.86234 8.56958 8.70105 8.46109 8.52334 8.38706C8.34563 8.31302 8.15501 8.2749 7.9625 8.2749C7.76998 8.2749 7.57937 8.31302 7.40166 8.38706C7.22395 8.46109 7.06265 8.56958 6.92708 8.70627L1.28333 14.3646C0.464036 15.1849 0.00384612 16.2969 0.00384602 17.4563C0.00384592 18.6157 0.464036 19.7276 1.28333 20.5479Z" fill="#FDFCFA"/>
</svg>
